# File created by Blade
# Date/Time:  Thu Jan 22 18:25:10 2015
# Frame Rate: 120.000 fps
#------------------------------------------------------
:FULLY-SPECIFIED
:DEGREES
1999
root -3.129219 33.187236 -0.159284 8.146146 -3.147936 2.364931
RightUpLeg -1.206766 -5.331208 -1.338142
RightLeg -0.769088 -0.000000 0.000000
RightFoot -10.666309 -2.267974 2.726106
RightToeBase 5.632223 -0.000000 -0.000000
LeftUpLeg -1.650104 3.652709 1.181300
LeftLeg 2.156161 -0.000000 -0.000000
LeftFoot -11.227413 3.486556 -10.137002
LeftToeBase 8.634109 -0.000000 -0.000000
Spine -13.126710 10.241837 -0.861549
RightShoulder 26.918421 50.488152 -30.718048
RightArm 92.409786 -41.379880 68.246852
RightForeArm -29.995458 -0.000000 50.795780
RightHand 7.669846 -0.000000 7.312826
RightHandThumb1 -24.326973 -0.000000 -32.862282
LeftShoulder -5.365577 -6.601290 12.250862
LeftArm 28.135373 30.230619 -85.880989
LeftForeArm -51.699463 -0.000000 117.628408
LeftHand 8.712856 -0.000000 -31.790684
LeftHandThumb1 -26.253704 0.000000 33.147579
Head 2.353889 -4.849029 -5.829063
2000
root -3.129131 33.188040 -0.159699 8.132172 -3.141612 2.363683
RightUpLeg -1.195737 -5.320944 -1.337926
RightLeg -0.760495 -0.000000 0.000000
RightFoot -10.663326 -2.292616 2.724830
RightToeBase 5.634004 -0.000000 -0.000000
LeftUpLeg -1.641861 3.641171 1.184575
LeftLeg 2.164161 -0.000000 -0.000000
LeftFoot -11.224065 3.498100 -10.153177
LeftToeBase 8.608993 -0.000000 -0.000000
Spine -13.096384 10.251728 -0.864856
RightShoulder 26.864613 50.613090 -30.785695
RightArm 92.417352 -41.421461 68.192784
RightForeArm -30.040793 -0.000000 50.812277
RightHand 7.653820 -0.000000 7.428161
RightHandThumb1 -24.326973 -0.000000 -32.862282
LeftShoulder -5.352561 -6.638496 12.260728
LeftArm 28.121380 30.198080 -85.917840
LeftForeArm -51.648881 -0.000000 117.613607
LeftHand 8.705718 -0.000000 -31.961695
LeftHandThumb1 -26.253704 0.000000 33.147579
Head 2.333779 -4.851176 -5.800243
2001
root -3.130549 33.188678 -0.159890 8.128311 -3.137077 2.361902
RightUpLeg -1.192940 -5.313420 -1.333351
RightLeg -0.757848 -0.000000 0.000000
RightFoot -10.657311 -2.300077 2.717514
RightToeBase 5.625938 -0.000000 -0.000000
LeftUpLeg -1.637467 3.637878 1.189060
LeftLeg 2.160224 -0.000000 -0.000000
LeftFoot -11.216399 3.502244 -10.148472
LeftToeBase 8.592534 -0.000000 -0.000000
Spine -13.084085 10.274312 -0.898578
RightShoulder 26.792623 50.728712 -30.822195
RightArm 92.460162 -41.449186 68.061470
RightForeArm -30.019150 -0.000000 50.839856
RightHand 7.634505 -0.000000 7.504962
RightHandThumb1 -24.326973 -0.000000 -32.862282
LeftShoulder -5.313479 -6.687328 12.300295
LeftArm 28.105610 30.223353 -85.957658
LeftForeArm -51.744366 -0.000000 117.638359
LeftHand 8.679337 0.000000 -31.914624
LeftHandThumb1 -26.253704 0.000000 33.147579
Head 2.333735 -4.965136 -5.746052
2002
root -3.130380 33.188716 -0.160338 8.121571 -3.126265 2.360260
RightUpLeg -1.188179 -5.304026 -1.332643
RightLeg -0.751502 -0.000000 0.000000
RightFoot -10.662786 -2.314532 2.739216
RightToeBase 5.615141 -0.000000 -0.000000
LeftUpLeg -1.634664 3.628097 1.191628
LeftLeg 2.165028 -0.000000 -0.000000
LeftFoot -11.218956 3.499767 -10.150985
LeftToeBase 8.601327 -0.000000 -0.000000
Spine -13.063852 10.268318 -0.879475
RightShoulder 26.745031 50.791472 -30.937726
RightArm 92.492714 -41.469441 68.040293
RightForeArm -30.141426 0.000000 50.835832
RightHand 7.703230 0.000000 7.586417
RightHandThumb1 -24.326973 -0.000000 -32.862282
LeftShoulder -5.297101 -6.705792 12.297301
LeftArm 28.103115 30.203371 -85.960597
LeftForeArm -51.849097 -0.000000 117.654253
LeftHand 8.595846 -0.000000 -31.884031
LeftHandThumb1 -26.253704 0.000000 33.147579
Head 2.306849 -4.875858 -5.756388
2003
root -3.131285 33.188820 -0.161010 8.115876 -3.114698 2.356140
RightUpLeg -1.189314 -5.299535 -1.326387
RightLeg -0.734057 -0.000000 0.000000
RightFoot -10.665527 -2.330958 2.735230
RightToeBase 5.576640 -0.000000 -0.000000
LeftUpLeg -1.636086 3.624182 1.198312
LeftLeg 2.170719 -0.000000 -0.000000
LeftFoot -11.238720 3.520528 -10.075445
LeftToeBase 8.724566 -0.000000 -0.000000
Spine -13.049322 10.260261 -0.884558
RightShoulder 26.740126 50.874588 -30.967913
RightArm 92.468451 -41.489734 68.012920
RightForeArm -30.222598 -0.000000 50.867512
RightHand 7.778931 0.000000 7.648579
RightHandThumb1 -24.326973 -0.000000 -32.862282
LeftShoulder -5.286067 -6.746164 12.323512
LeftArm 28.081644 30.217285 -85.990155
LeftForeArm -51.855149 -0.000000 117.650427
LeftHand 8.635503 -0.000000 -31.888927
LeftHandThumb1 -26.253704 0.000000 33.147579
Head 2.298375 -4.851883 -5.726163
2004
root -3.131674 33.188856 -0.163241 8.114967 -3.087472 2.359453
RightUpLeg -1.192189 -5.317365 -1.324555
RightLeg -0.725833 -0.000000 0.000000
RightFoot -10.671958 -2.344047 2.732673
RightToeBase 5.613033 -0.000000 -0.000000
LeftUpLeg -1.652752 3.596493 1.199598
LeftLeg 2.190588 -0.000000 -0.000000
LeftFoot -11.239137 3.521098 -10.080153
LeftToeBase 8.682923 -0.000000 -0.000000
Spine -13.034366 10.240984 -0.891112
RightShoulder 26.705760 50.950804 -31.011868
RightArm 92.476354 -41.513544 67.959485
RightForeArm -30.263186 0.000000 50.894370
RightHand 7.764188 -0.000000 7.668549
RightHandThumb1 -24.326973 -0.000000 -32.862282
LeftShoulder -5.270220 -6.770493 12.342121
LeftArm 28.075950 30.210767 -86.015444
LeftForeArm -51.890207 0.000000 117.645157
LeftHand 8.606956 -0.000000 -31.913187
LeftHandThumb1 -26.253704 0.000000 33.147579
Head 2.288819 -4.850154 -5.713733
2005
root -3.133314 33.188653 -0.162629 8.107579 -3.070677 2.359745
RightUpLeg -1.177431 -5.328179 -1.320817
RightLeg -0.732646 -0.000000 0.000000
RightFoot -10.675149 -2.347052 2.734558
RightToeBase 5.619933 -0.000000 -0.000000
LeftUpLeg -1.645314 3.594877 1.205254
LeftLeg 2.187774 -0.000000 -0.000000
LeftFoot -11.235168 3.506789 -10.072770
LeftToeBase 8.697288 -0.000000 -0.000000
Spine -13.021325 10.239894 -0.904451
RightShoulder 26.627403 50.976698 -31.079563
RightArm 92.527943 -41.536406 67.896699
RightForeArm -30.267940 -0.000000 50.910978
RightHand 7.798380 0.000000 7.743439
RightHandThumb1 -24.326973 -0.000000 -32.862282
LeftShoulder -5.255337 -6.802947 12.360721
LeftArm 28.058739 30.226800 -86.034432
LeftForeArm -51.855522 0.000000 117.645507
LeftHand 8.745183 -0.000000 -31.999526
LeftHandThumb1 -26.253704 0.000000 33.147579
Head 2.292503 -4.848525 -5.694781
2006
root -3.134730 33.187879 -0.162146 8.100230 -3.053189 2.357862
RightUpLeg -1.162659 -5.344559 -1.314384
RightLeg -0.740681 -0.000000 0.000000
RightFoot -10.678220 -2.349532 2.721635
RightToeBase 5.623098 -0.000000 -0.000000
LeftUpLeg -1.639806 3.588179 1.211701
LeftLeg 2.189704 -0.000000 -0.000000
LeftFoot -11.228544 3.473137 -10.143391
LeftToeBase 8.607548 -0.000000 -0.000000
Spine -13.012269 10.228983 -0.911171
RightShoulder 26.557183 50.981292 -31.136523
RightArm 92.593253 -41.552754 67.824810
RightForeArm -30.243432 -0.000000 50.924513
RightHand 7.853898 0.000000 7.797101
RightHandThumb1 -24.326973 -0.000000 -32.862282
LeftShoulder -5.250525 -6.818376 12.383149
LeftArm 28.050604 30.239853 -86.052416
LeftForeArm -51.876966 -0.000000 117.629770
LeftHand 8.754122 0.000000 -32.064337
LeftHandThumb1 -26.253704 0.000000 33.147579
Head 2.306842 -4.859300 -5.682110
2007
root -3.136079 33.187335 -0.162360 8.099779 -3.039768 2.356220
RightUpLeg -1.163198 -5.354060 -1.308802
RightLeg -0.732754 -0.000000 0.000000
RightFoot -10.684238 -2.360806 2.721830
RightToeBase 5.610315 -0.000000 -0.000000
LeftUpLeg -1.639856 3.557722 1.217279
LeftLeg 2.186065 -0.000000 -0.000000
LeftFoot -11.240400 3.498593 -10.129105
LeftToeBase 8.648995 -0.000000 -0.000000
Spine -13.009242 10.216185 -0.916057
RightShoulder 26.534753 51.024957 -31.143775
RightArm 92.594002 -41.586282 67.797970
RightForeArm -30.230359 0.000000 50.940763
RightHand 7.885768 -0.000000 7.841152
RightHandThumb1 -24.326973 -0.000000 -32.862282
LeftShoulder -5.248309 -6.828453 12.396588
LeftArm 28.046418 30.261394 -86.058509
LeftForeArm -51.893194 -0.000000 117.617372
LeftHand 8.692210 -0.000000 -32.016625
LeftHandThumb1 -26.253704 0.000000 33.147579
Head 2.314702 -4.848936 -5.676511
2008
root -3.136686 33.186721 -0.162127 8.093583 -3.030492 2.355342
RightUpLeg -1.156706 -5.362746 -1.307937
RightLeg -0.727837 -0.000000 0.000000
RightFoot -10.693092 -2.344275 2.730751
RightToeBase 5.623514 -0.000000 -0.000000
LeftUpLeg -1.635919 3.547146 1.220494
LeftLeg 2.190630 -0.000000 -0.000000
LeftFoot -11.243906 3.498912 -10.135397
LeftToeBase 8.622676 -0.000000 -0.000000
Spine -13.001075 10.208007 -0.918011
RightShoulder 26.474487 50.997417 -31.194255
RightArm 92.669064 -41.601565 67.735022
RightForeArm -30.253314 0.000000 50.952502
RightHand 7.897697 -0.000000 7.865744
RightHandThumb1 -24.326973 -0.000000 -32.862282
LeftShoulder -5.248479 -6.829598 12.404257
LeftArm 28.047850 30.287567 -86.056234
LeftForeArm -51.839834 0.000000 117.612728
LeftHand 8.708938 0.000000 -31.983380
LeftHandThumb1 -26.253704 0.000000 33.147579
Head 2.327671 -4.833115 -5.678423
2009
root -3.138817 33.185414 -0.159401 8.077222 -3.030179 2.350765
RightUpLeg -1.133108 -5.351220 -1.302880
RightLeg -0.730107 -0.000000 0.000000
RightFoot -10.706539 -2.355415 2.730283
RightToeBase 5.626904 -0.000000 -0.000000
LeftUpLeg -1.605506 3.564257 1.229048
LeftLeg 2.173601 -0.000000 -0.000000
LeftFoot -11.248755 3.486409 -10.129170
LeftToeBase 8.626827 -0.000000 -0.000000
Spine -12.985309 10.216661 -0.922595
RightShoulder 26.405625 50.970484 -31.246372
RightArm 92.728814 -41.617684 67.694571
RightForeArm -30.281056 0.000000 50.970210
RightHand 7.885824 -0.000000 7.862328
RightHandThumb1 -24.326973 -0.000000 -32.862282
LeftShoulder -5.249854 -6.821527 12.410042
LeftArm 28.059418 30.313701 -86.045323
LeftForeArm -51.839932 -0.000000 117.610647
LeftHand 8.710822 0.000000 -31.997563
LeftHandThumb1 -26.253704 0.000000 33.147579
Head 2.343595 -4.843921 -5.682238
2010
root -3.140139 33.184723 -0.159655 8.078156 -3.022480 2.349207
RightUpLeg -1.133182 -5.341055 -1.299465
RightLeg -0.729286 -0.000000 0.000000
RightFoot -10.715611 -2.361907 2.750457
RightToeBase 5.622840 -0.000000 -0.000000
LeftUpLeg -1.611142 3.559191 1.233352
LeftLeg 2.182182 -0.000000 -0.000000
LeftFoot -11.258713 3.481817 -10.132615
LeftToeBase 8.629317 -0.000000 -0.000000
Spine -12.985367 10.212973 -0.928576
RightShoulder 26.378177 50.981082 -31.254598
RightArm 92.722689 -41.646400 67.699317
RightForeArm -30.326583 0.000000 50.987116
RightHand 7.909233 -0.000000 7.893405
RightHandThumb1 -24.326973 -0.000000 -32.862282
LeftShoulder -5.244022 -6.834420 12.414235
LeftArm 28.036493 30.336975 -86.050217
LeftForeArm -51.833943 -0.000000 117.604627
LeftHand 8.726101 -0.000000 -32.019394
LeftHandThumb1 -26.253704 0.000000 33.147579
Head 2.359755 -4.826821 -5.684986
2011
root -3.140735 33.183887 -0.159644 8.077831 -3.018457 2.351988
RightUpLeg -1.130369 -5.331336 -1.303012
RightLeg -0.732660 -0.000000 0.000000
RightFoot -10.715686 -2.369177 2.734473
RightToeBase 5.620950 -0.000000 -0.000000
LeftUpLeg -1.612629 3.557124 1.232086
LeftLeg 2.183207 -0.000000 -0.000000
LeftFoot -11.265586 3.481609 -10.134405
LeftToeBase 8.638366 -0.000000 -0.000000
Spine -12.983701 10.219529 -0.937543
RightShoulder 26.325901 50.958170 -31.293830
RightArm 92.740832 -41.666222 67.697427
RightForeArm -30.379962 -0.000000 51.013629
RightHand 7.892237 -0.000000 7.899156
RightHandThumb1 -24.326973 -0.000000 -32.862282
LeftShoulder -5.256000 -6.803187 12.409280
LeftArm 28.058882 30.374932 -86.038779
LeftForeArm -51.816732 0.000000 117.595491
LeftHand 8.747614 0.000000 -31.997231
LeftHandThumb1 -26.253704 0.000000 33.147579
Head 2.368506 -4.831902 -5.688654
